<svg width="200" height="200" viewBox="0 0 200 200" fill="none" xmlns="http://www.w3.org/2000/svg">
<path d="M180 100C180 78.7827 171.571 58.4344 156.569 43.4315C141.566 28.4285 121.217 20 100 20C78.7827 20 58.4344 28.4285 43.4315 43.4315C28.4285 58.4344 20 78.7827 20 100C20 121.217 28.4285 141.566 43.4315 156.569C58.4344 171.571 78.7827 180 100 180C121.217 180 141.566 171.571 156.569 156.569C171.571 141.566 180 121.217 180 100ZM200 100C200 126.522 189.464 151.957 170.711 170.711C151.957 189.464 126.522 200 100 200C86.8678 200 73.8642 197.413 61.7317 192.388C49.5991 187.362 38.5752 179.997 29.2893 170.711C10.5357 151.957 0 126.522 0 100C0 73.4784 10.5357 48.043 29.2893 29.2893C48.043 10.5357 73.4784 0 100 0C113.132 0 126.136 2.58658 138.268 7.61205C150.401 12.6375 161.425 20.0035 170.711 29.2893C179.997 38.5752 187.362 49.5991 192.388 61.7317C197.413 73.8642 200 86.8678 200 100ZM135 60C143 60 150 67 150 75C150 83 143 90 135 90C127 90 120 83 120 75C120 67 127 60 135 60ZM80 75C80 83 73 90 65 90C57 90 50 83 50 75C50 67 57 60 65 60C73 60 80 67 80 75ZM100 120C117.5 120 132.9 127.2 141.9 138.1L127.7 152.3C123.2 145 112.5 140 100 140C87.5 140 76.8 145 72.3 152.3L58.1 138.1C67.1 127.2 82.5 120 100 120Z" fill="black"/>
</svg>
